<svg width="10" height="10" viewBox="0 0 10 10" fill="none" xmlns="http://www.w3.org/2000/svg">
<path d="M4.0575 8.859C4.00917 8.81191 3.8025 8.63412 3.6325 8.46851C2.56333 7.49758 0.813333 4.9647 0.279167 3.63899C0.193333 3.43766 0.0116667 2.92865 0 2.65669C0 2.3961 0.06 2.14768 0.181667 1.91063C0.351667 1.61513 0.619167 1.37807 0.935 1.24818C1.15417 1.16457 1.81 1.03467 1.82167 1.03467C2.53917 0.904784 3.705 0.833344 4.99333 0.833344C6.22083 0.833344 7.33917 0.904784 8.0675 1.01113C8.07917 1.02331 8.89417 1.1532 9.17333 1.29527C9.68333 1.55586 10 2.06487 10 2.60961V2.65669C9.9875 3.01146 9.67083 3.75752 9.65917 3.75752C9.12417 5.01178 7.46 7.48621 6.35417 8.48069C6.35417 8.48069 6.07 8.76077 5.8925 8.88254C5.6375 9.07251 5.32167 9.16668 5.00583 9.16668C4.65333 9.16668 4.325 9.06033 4.0575 8.859Z" fill="#9E9E9E"/>
</svg>
