<svg width="42" height="60" viewBox="0 0 42 60" fill="none" xmlns="http://www.w3.org/2000/svg">
<path d="M21.1793 20.8069C26.3246 20.8069 30.4956 16.6359 30.4956 11.4906C30.4956 6.34533 26.3246 2.17426 21.1793 2.17426C16.034 2.17426 11.8629 6.34533 11.8629 11.4906C11.8629 16.6359 16.034 20.8069 21.1793 20.8069Z" stroke="#FD5D69" stroke-width="4.1406" stroke-linecap="round" stroke-linejoin="round"/>
<path d="M38.3296 48.0189C33.8577 58.064 21.1214 57.236 21.1214 57.236C21.1214 57.236 8.37662 58.0309 3.91305 48.0189C3.04919 46.0929 2.60254 44.0058 2.60254 41.8949C2.60254 39.784 3.04919 37.6972 3.91305 35.7712C8.37662 25.7261 21.1214 26.5541 21.1214 26.5541C21.1214 26.5541 33.8577 25.7592 38.3296 35.7712C39.1934 37.6972 39.6401 39.784 39.6401 41.8949C39.6401 44.0058 39.1934 46.0929 38.3296 48.0189Z" stroke="#FD5D69" stroke-width="4.1406" stroke-linecap="round" stroke-linejoin="round"/>
</svg>
