<svg width="12" height="11" viewBox="0 0 12 11" fill="none" xmlns="http://www.w3.org/2000/svg">
<path d="M7.95442 1.14215C8.56404 0.173042 9.74517 0.410756 10.434 1.12858C11.1229 1.84641 11.225 2.91936 10.5072 3.60823M10.5072 3.60823C10.9476 4.78036 10.9476 6.07249 10.5072 7.24462C9.37941 10.2135 6.16671 9.97876 6.16671 9.97876C6.16671 9.97876 2.95402 10.2135 1.82622 7.24462C1.38694 6.07229 1.38693 4.78055 1.82621 3.60822M10.5072 3.60823C9.37941 0.639376 6.16671 0.875605 6.16671 0.875605C6.16671 0.875605 2.95401 0.639367 1.82621 3.60822M4.37288 1.14423C3.61086 0.325418 2.53792 0.355918 1.85058 1.07375C1.16323 1.79157 1.10838 2.91935 1.82621 3.60822M8.84169 9.2972L9.76193 10.5M3.49291 9.29792L2.57146 10.5M6.1667 3.34915V4.63849C6.16685 4.88395 6.22344 5.12611 6.33205 5.34623C6.44066 5.56635 6.59836 5.75857 6.79306 5.90804L8.08396 6.89714" stroke="#FFFDF9" stroke-width="0.762026" stroke-linecap="round" stroke-linejoin="round"/>
</svg>
