<svg width="31" height="41" viewBox="0 0 31 41" fill="none" xmlns="http://www.w3.org/2000/svg">
<path d="M11.4974 39.4015L27.2953 27.4112C28.3241 26.6299 29.1582 25.6211 29.7324 24.464C30.3066 23.3068 30.6054 22.0325 30.6054 20.7407C30.6054 19.4489 30.3066 18.1746 29.7324 17.0174C29.1582 15.8602 28.3241 14.8515 27.2953 14.0702L11.4974 2.07958C10.4975 1.31898 9.30511 0.853086 8.05444 0.734131C6.80377 0.615177 5.54451 0.847901 4.41914 1.40636C3.29377 1.96482 2.34727 2.8268 1.6856 3.89476C1.02393 4.96271 0.673792 6.19417 0.674775 7.45049V34.0309C0.673792 35.2872 1.02393 36.5187 1.6856 37.5866C2.34727 38.6546 3.29377 39.5163 4.41914 40.0748C5.54451 40.6332 6.80377 40.8662 8.05444 40.7472C9.30511 40.6283 10.4975 40.1621 11.4974 39.4015Z" fill="#FFFDF9"/>
</svg>
