<svg width="17" height="18" viewBox="0 0 17 18" fill="none" xmlns="http://www.w3.org/2000/svg">
<path d="M11.7654 4.24381L10.1887 2.12881C10.0118 1.89318 9.78518 1.70249 9.52642 1.57135C9.26766 1.44021 8.98344 1.37207 8.69541 1.37207C8.40737 1.37207 8.12315 1.44021 7.86439 1.57135C7.60563 1.70249 7.37919 1.89318 7.20229 2.12881L5.62557 4.24381C5.40407 4.54181 5.10555 4.76852 4.76468 4.8976L2.3397 5.80311C2.06284 5.90095 1.81166 6.06403 1.60584 6.27948C1.40003 6.49494 1.24513 6.7569 1.15346 7.04484C1.06179 7.33279 1.03572 7.63881 1.0774 7.93893C1.11907 8.23906 1.22738 8.52507 1.39366 8.77453L2.84428 10.9876C3.04372 11.2991 3.15313 11.6632 3.15963 12.037L3.24154 14.7077C3.24761 15.0102 3.32119 15.3071 3.45634 15.5752C3.59149 15.8434 3.78462 16.0754 4.02067 16.2533C4.25671 16.4312 4.52915 16.5501 4.81688 16.6007C5.10461 16.6513 5.39973 16.6321 5.67915 16.5448L8.15787 15.7996C8.50483 15.6943 8.8735 15.6943 9.22047 15.7996L11.6992 16.5448C11.9786 16.6321 12.2737 16.6513 12.5615 16.6007C12.8492 16.5501 13.1216 16.4312 13.3577 16.2533C13.5937 16.0754 13.7869 15.8434 13.922 15.5752C14.0571 15.3071 14.1307 15.0102 14.1368 14.7077L14.2187 12.037C14.2273 11.6636 14.3365 11.3 14.5341 10.9876L15.9847 8.77453C16.1481 8.52519 16.2543 8.24046 16.2952 7.94205C16.3362 7.64364 16.3109 7.33952 16.2212 7.05282C16.1314 6.76612 15.9796 6.50445 15.7774 6.28786C15.5752 6.07127 15.3278 5.90547 15.0543 5.80311L12.6263 4.8976C12.2854 4.76852 11.9869 4.54181 11.7654 4.24381Z" fill="#FD5D69" stroke="#FD5D69" stroke-width="1.17355" stroke-linecap="round" stroke-linejoin="round"/>
</svg>
